<?xml version="1.0" encoding="UTF-8" standalone="no"?>
<!DOCTYPE svg PUBLIC "-//W3C//DTD SVG 1.1//EN" "http://www.w3.org/Graphics/SVG/1.1/DTD/svg11.dtd">
<svg width="100%" height="100%" viewBox="0 0 3079 2044" version="1.1" xmlns="http://www.w3.org/2000/svg" xmlns:xlink="http://www.w3.org/1999/xlink" xml:space="preserve" xmlns:serif="http://www.serif.com/" style="fill-rule:evenodd;clip-rule:evenodd;stroke-linejoin:round;stroke-miterlimit:2;">
    <g transform="matrix(1,0,0,1,-180,-113.151)">
        <g transform="matrix(4.16667,0,0,4.16667,0,0)">
            <path d="M451.42,219.649L335.316,219.649C331.995,212.451 324.733,207.445 316.285,207.445C304.704,207.445 295.315,216.833 295.315,228.415C295.315,239.996 304.704,249.384 316.285,249.384C326.392,249.384 334.825,242.233 336.81,232.716L451.608,232.716C451.7,228.443 451.64,224.088 451.42,219.649Z" style="fill:rgb(240,75,34);fill-rule:nonzero;"/>
        </g>
        <g transform="matrix(4.16667,0,0,4.16667,0,0)">
            <path d="M372.192,196.32C380.572,193.572 386.628,185.7 386.628,176.402C386.628,164.821 377.24,155.433 365.658,155.433C354.078,155.433 344.688,164.821 344.688,176.402C344.688,185.701 350.747,193.573 359.125,196.32L359.125,352.306L391.882,352.306C392.656,347.975 393.586,343.608 394.713,339.239L372.192,339.239L372.192,196.32ZM225.163,195.94L302.409,195.94L302.409,156.265C309.941,154.282 315.812,148.233 317.518,140.592L417.225,140.592C415.453,136.266 413.535,131.91 411.48,127.526L316.234,127.526C312.975,120.174 305.626,115.039 297.066,115.039C285.485,115.039 276.097,124.427 276.097,136.008C276.097,144.859 281.588,152.413 289.342,155.49L289.342,182.874L224.082,182.874C220.888,175.372 213.45,170.111 204.782,170.111C193.201,170.111 183.813,179.5 183.813,191.082C183.813,199.546 188.839,206.822 196.061,210.134C196.498,269.361 225.328,323.876 272.862,357.599C272.74,358.515 272.655,359.443 272.655,360.394C272.655,371.975 282.043,381.363 293.625,381.363C305.206,381.363 314.594,371.975 314.594,360.394C314.594,348.813 305.206,339.424 293.625,339.424C288.72,339.424 284.219,341.121 280.647,343.942C238.161,313.198 212.394,264.147 211.737,210.845C218.399,208.499 223.509,202.898 225.163,195.94Z" style="fill:rgb(24,24,24);fill-rule:nonzero;"/>
        </g>
        <g transform="matrix(4.16667,0,0,4.16667,0,0)">
            <path d="M442.095,72.327C442.099,72.323 442.104,72.319 442.108,72.315L368.681,72.315C365.934,63.936 358.062,57.879 348.764,57.879C337.183,57.879 327.794,67.268 327.794,78.849C327.794,90.43 337.183,99.819 348.764,99.819C358.062,99.819 365.935,93.762 368.682,85.382L462.589,85.382C466.634,80.853 437.593,76.491 442.095,72.327Z" style="fill:rgb(240,75,34);fill-rule:nonzero;"/>
        </g>
        <g transform="matrix(4.16667,0,0,4.16667,0,0)">
            <path d="M403.49,27.95L403.445,27.952C403.485,27.955 403.523,27.959 403.563,27.962C403.539,27.959 403.515,27.953 403.49,27.95Z" style="fill:rgb(240,75,34);fill-rule:nonzero;"/>
        </g>
        <g transform="matrix(4.16667,0,0,4.16667,0,0)">
            <path d="M369.287,42.16C356.262,31.759 346.788,30.201 342.444,30.168L340.969,30.222C340.831,30.243 340.693,30.256 340.554,30.276C291.719,40.642 250.147,70.705 224.286,111.631C223.454,111.53 222.613,111.463 221.755,111.463C210.174,111.463 200.785,120.852 200.785,132.433C200.785,144.014 210.174,153.403 221.755,153.403C233.336,153.403 242.725,144.014 242.725,132.433C242.725,127.394 240.944,122.771 237.982,119.155C266.072,75.199 314.08,45.162 369.287,42.16Z" style="fill:rgb(240,75,34);fill-rule:nonzero;"/>
        </g>
        <g transform="matrix(4.16667,0,0,4.16667,0,0)">
            <path d="M340.782,30.229L340.749,30.236C340.787,30.232 340.841,30.229 340.882,30.225L340.782,30.229Z" style="fill:rgb(240,75,34);fill-rule:nonzero;"/>
        </g>
        <g transform="matrix(4.16667,0,0,4.16667,0,0)">
            <path d="M395.137,270.957C385.838,270.957 377.966,277.015 375.219,285.394L288.345,285.394C285.597,277.015 277.725,270.957 268.427,270.957C256.846,270.957 247.457,280.346 247.457,291.927C247.457,303.508 256.846,312.896 268.427,312.896C277.725,312.896 285.597,306.84 288.345,298.461L375.219,298.461C377.966,306.84 385.839,312.896 395.137,312.896C406.718,312.896 416.106,303.508 416.106,291.927C416.106,280.346 406.718,270.957 395.137,270.957Z" style="fill:rgb(240,75,34);fill-rule:nonzero;"/>
        </g>
        <g transform="matrix(4.16667,0,0,4.16667,0,0)">
            <path d="M339.784,30.378C339.784,30.378 374.71,21.747 420.9,114.125C462.883,198.089 458.01,263.749 429.521,310.229C399.599,359.051 385.009,440.206 385.009,440.206C411.997,422.214 459.901,401.201 477.034,406.452C494.166,411.702 525.555,426.397 538.542,412.315C551.529,398.232 542.021,384.368 548.4,376.183C554.779,367.996 566.752,367.464 571.077,362.423C575.403,357.382 569.585,353.532 570.332,349.932C571.078,346.331 573.724,345.212 579.487,343.438C585.25,341.663 581.804,329.927 583.422,324.912C585.04,319.896 599.518,319.861 607.813,316.031C616.108,312.202 626.964,314.597 610.232,286.22C593.502,257.843 579.32,212.984 579.32,212.984L588.591,202.271C588.591,202.271 592.267,147.9 564.398,103.092C545.281,72.355 457.564,12.665 339.784,30.378Z" style="fill:url(#_Linear1);"/>
        </g>
        <g transform="matrix(4.16667,0,0,4.16667,0,0)">
            <g transform="matrix(0.24,0,0,0.24,7.11998,12)">
                <text x="133px" y="2103px" style="font-family:'GoodTimesRg-Regular', 'Good Times', sans-serif;font-size:333.333px;">S<tspan x="417px " y="2103px ">M</tspan>AR<tspan x="1420px " y="2103px ">T</tspan>  FOR<tspan x="2715px " y="2103px ">C</tspan>E</text>
            </g>
        </g>
    </g>
    <defs>
        <linearGradient id="_Linear1" x1="0" y1="0" x2="1" y2="0" gradientUnits="userSpaceOnUse" gradientTransform="matrix(224.345,0,0,224.345,315.569,233.681)"><stop offset="0" style="stop-color:white;stop-opacity:1"/><stop offset="0.9" style="stop-color:rgb(242,101,53);stop-opacity:1"/><stop offset="1" style="stop-color:rgb(240,75,34);stop-opacity:1"/></linearGradient>
    </defs>
</svg>
